<svg xmlns="http://www.w3.org/2000/svg" viewBox="0 0 96 96" width="96" height="96">
  <style>
    .st0{fill:#45E3FF;}
    .st1{fill:#38cdfa;}
  </style>
  <g>
    <path class="st0" d="M72,24H24c-2.2,0-4,1.8-4,4v40c0,2.2,1.8,4,4,4h48c2.2,0,4-1.8,4-4V28C76,25.8,74.2,24,72,24z M70,66H26V30h44V66z"/>
    <path class="st1" d="M36,42c3.3,0,6-2.7,6-6s-2.7-6-6-6s-6,2.7-6,6S32.7,42,36,42z"/>
    <path class="st1" d="M60,42c3.3,0,6-2.7,6-6s-2.7-6-6-6s-6,2.7-6,6S56.7,42,60,42z"/>
    <path class="st0" d="M48,56c-6.6,0-12-5.4-12-12h-4c0,8.8,7.2,16,16,16s16-7.2,16-16h-4C60,50.6,54.6,56,48,56z"/>
    <path class="st1" d="M84,76H12c-2.2,0-4,1.8-4,4s1.8,4,4,4h72c2.2,0,4-1.8,4-4S86.2,76,84,76z"/>
    <path class="st1" d="M84,12H12c-2.2,0-4,1.8-4,4s1.8,4,4,4h72c2.2,0,4-1.8,4-4S86.2,12,84,12z"/>
  </g>
</svg>