<svg xmlns="http://www.w3.org/2000/svg" viewBox="0 0 96 96" width="96" height="96">
  <style>
    .st0{fill:#45E3FF;}
    .st1{fill:#38cdfa;}
  </style>
  <g>
    <path class="st0" d="M64,16c-8.8,0-16,7.2-16,16v8h32v-8C80,23.2,72.8,16,64,16z M64,36c-2.2,0-4-1.8-4-4s1.8-4,4-4s4,1.8,4,4
      S66.2,36,64,36z"/>
    <path class="st1" d="M32,16c-8.8,0-16,7.2-16,16v8h32v-8C48,23.2,40.8,16,32,16z M32,36c-2.2,0-4-1.8-4-4s1.8-4,4-4s4,1.8,4,4
      S34.2,36,32,36z"/>
    <path class="st0" d="M80,44H16c-2.2,0-4,1.8-4,4v8c0,13.3,10.7,24,24,24h24c13.3,0,24-10.7,24-24v-8C84,45.8,82.2,44,80,44z"/>
  </g>
</svg>