<?xml version="1.0" encoding="UTF-8"?>
<svg width="96" height="96" viewBox="0 0 24 24" fill="none" xmlns="http://www.w3.org/2000/svg">
    <path d="M12 3C16.9706 3 21 7.02944 21 12C21 16.9706 16.9706 21 12 21C7.02944 21 3 16.9706 3 12C3 7.02944 7.02944 3 12 3Z" stroke="#45E3FF" stroke-width="1.5" stroke-linecap="round" stroke-linejoin="round"/>
    <path d="M15 9C15 10.6569 13.6569 12 12 12C10.3431 12 9 10.6569 9 9C9 7.34315 10.3431 6 12 6C13.6569 6 15 7.34315 15 9Z" stroke="#45E3FF" stroke-width="1.5" stroke-linecap="round" stroke-linejoin="round"/>
    <path d="M6.16797 18.849C6.41548 18.0252 6.92194 17.3032 7.61222 16.79C8.30249 16.2768 9.13982 15.9997 9.99997 16H14C14.8612 15.9997 15.6996 16.2774 16.3904 16.7918C17.0811 17.3062 17.5874 18.0298 17.834 18.855" stroke="#45E3FF" stroke-width="1.5" stroke-linecap="round" stroke-linejoin="round"/>
</svg> 