<svg xmlns="http://www.w3.org/2000/svg" viewBox="0 0 96 96" width="96" height="96">
  <style>
    .st0{fill:#45E3FF;}
    .st1{fill:#38cdfa;}
  </style>
  <g>
    <path class="st0" d="M48,10c-21,0-38,17-38,38s17,38,38,38s38-17,38-38S69,10,48,10z M48,82c-18.8,0-34-15.2-34-34s15.2-34,34-34
      s34,15.2,34,34S66.8,82,48,82z"/>
    <path class="st1" d="M70,44H52V26c0-2.2-1.8-4-4-4s-4,1.8-4,4v18H26c-2.2,0-4,1.8-4,4s1.8,4,4,4h18v18c0,2.2,1.8,4,4,4s4-1.8,4-4
      V52h18c2.2,0,4-1.8,4-4S72.2,44,70,44z"/>
    <path class="st0" d="M48,16c-17.6,0-32,14.4-32,32s14.4,32,32,32s32-14.4,32-32S65.6,16,48,16z M48,76c-15.5,0-28-12.5-28-28
      s12.5-28,28-28s28,12.5,28,28S63.5,76,48,76z"/>
  </g>
</svg>